<svg xmlns="http://www.w3.org/2000/svg" width="20" height="20" fill="none" viewBox="0 0 20 20"><path fill="#636363" d="M16.193 13.872c-.08 0-.16-.03-.22-.088l-3.71-3.48a.323.323 0 1 1 .441-.47l3.71 3.48a.322.322 0 0 1-.221.558zm-12.387.001a.323.323 0 0 1-.22-.557l3.712-3.48a.322.322 0 1 1 .442.469l-3.713 3.48a.315.315 0 0 1-.22.088z"/><path fill="#636363" d="M18.388 17.11H1.612A1.616 1.616 0 0 1 0 15.496V4.503c0-.89.724-1.613 1.612-1.613h16.776c.888 0 1.612.723 1.612 1.613v10.994c0 .89-.724 1.612-1.612 1.612zM1.612 3.534a.969.969 0 0 0-.967.968v10.994c0 .533.434.967.967.967h16.776a.968.968 0 0 0 .967-.967V4.503a.969.969 0 0 0-.967-.968H1.612z"/><path fill="#636363" d="M10 11.62c-.43 0-.858-.142-1.184-.427L.536 3.97a.321.321 0 1 1 .422-.486l8.28 7.222c.412.36 1.108.36 1.52 0l8.27-7.21a.323.323 0 0 1 .425.485l-8.27 7.213a1.806 1.806 0 0 1-1.185.427z"/></svg>