<svg xmlns="http://www.w3.org/2000/svg" width="18" height="18" fill="none" viewBox="0 0 18 18"><path fill="#636363" fill-rule="evenodd" d="M2.782.493C3.072.29 3.377.2 3.654.2c.384 0 .717.17.898.426.19.268 2.15 3.207 2.37 3.568.097.157.144.348.144.557 0 .27-.08.567-.23.858-.15.283-.64 1.14-.88 1.56.26.367.926 1.235 2.3 2.602 1.36 1.358 2.237 2.03 2.61 2.29.42-.24 1.28-.727 1.563-.874a1.87 1.87 0 0 1 .86-.235c.21 0 .404.05.563.15.34.215 3.265 2.162 3.543 2.363.263.19.405.528.405.896 0 .29-.088.6-.274.866-.018.025-1.837 2.573-2.908 2.573l-.022-.002c-3-.093-6.525-3-8.955-5.423C3.21 9.955.296 6.44.2 3.435V3.41C.2 2.36 2.756.51 2.78.494zM6.14 11.876c3.307 3.297 6.32 5.15 8.478 5.218.377-.013 1.49-1.098 2.33-2.272.096-.137.15-.3.15-.464 0-.168-.058-.285-.113-.325-.24-.173-3.158-2.116-3.51-2.337a.356.356 0 0 0-.186-.042c-.155 0-.344.056-.535.155-.276.144-1.162.647-1.54.862l-.387.22-.365-.256c-.414-.29-1.316-.983-2.705-2.367C6.373 8.89 5.674 7.986 5.38 7.57l-.26-.367.225-.39c.338-.587.742-1.3.866-1.535.098-.185.152-.373.152-.53a.381.381 0 0 0-.04-.19 248.68 248.68 0 0 0-2.345-3.53c-.042-.06-.16-.125-.322-.125a.835.835 0 0 0-.466.162C2.172 1.792.927 3 .903 3.41.994 6.184 3.8 9.545 6.14 11.877z" clip-rule="evenodd"/></svg>